<svg width="19" height="22" viewBox="0 0 19 22" fill="none" xmlns="http://www.w3.org/2000/svg">
<path d="M6.24609 5.5H12.2461C12.2461 3.84315 10.903 2.5 9.24609 2.5C7.58919 2.5 6.24609 3.84315 6.24609 5.5ZM4.24609 5.5C4.24609 2.73858 6.48467 0.5 9.24609 0.5C12.0075 0.5 14.2461 2.73858 14.2461 5.5H17.2461C17.7984 5.5 18.2461 5.94772 18.2461 6.5V20.5C18.2461 21.0523 17.7984 21.5 17.2461 21.5H1.24609C0.693814 21.5 0.246094 21.0523 0.246094 20.5V6.5C0.246094 5.94772 0.693814 5.5 1.24609 5.5H4.24609ZM2.24609 7.5V19.5H16.2461V7.5H2.24609ZM6.24609 9.5C6.24609 11.1569 7.58919 12.5 9.24609 12.5C10.903 12.5 12.2461 11.1569 12.2461 9.5H14.2461C14.2461 12.2614 12.0075 14.5 9.24609 14.5C6.48467 14.5 4.24609 12.2614 4.24609 9.5H6.24609Z" fill="#0049B3"/>
</svg>
