<svg width="16" height="16" viewBox="0 0 16 16" fill="none" xmlns="http://www.w3.org/2000/svg">
<path d="M8 15.3333C10.7614 15.3333 13 13.0947 13 10.3333C13 9.75633 12.8465 9.20213 12.6667 8.6864C11.5555 9.78433 10.7111 10.3333 10.1333 10.3333C12.7969 5.66667 11.3333 3.66667 7.33333 1C7.66667 4.33301 5.46935 5.84917 4.57453 6.69107C3.60524 7.603 3 8.89747 3 10.3333C3 13.0947 5.23857 15.3333 8 15.3333ZM8.47293 3.48999C10.6341 5.32352 10.6444 6.7482 8.97533 9.6724C8.468 10.5613 9.10987 11.6667 10.1333 11.6667C10.5923 11.6667 11.0561 11.5328 11.5459 11.2701C11.1319 12.8413 9.70127 14 8 14C5.97495 14 4.33333 12.3584 4.33333 10.3333C4.33333 9.3072 4.75519 8.35173 5.48817 7.66213C5.57217 7.58313 5.99833 7.2054 6.01651 7.18907C6.29908 6.93473 6.53187 6.71087 6.76193 6.46451C7.5822 5.58621 8.1714 4.61087 8.47293 3.48999Z" fill="#D85F30"/>
</svg>
