<svg width="24" height="25" viewBox="0 0 24 25" fill="none" xmlns="http://www.w3.org/2000/svg">
<path fill-rule="evenodd" clip-rule="evenodd" d="M12 22.5059C6.667 17.4519 4 13.4519 4 10.5059C4 8.38413 4.84285 6.3493 6.34315 4.84901C7.84344 3.34871 9.87827 2.50586 12 2.50586C14.1217 2.50586 16.1566 3.34871 17.6569 4.84901C19.1571 6.3493 20 8.38413 20 10.5059C20 13.4519 17.333 17.4519 12 22.5059ZM12 13.5059C12.7956 13.5059 13.5587 13.1898 14.1213 12.6272C14.6839 12.0646 15 11.3015 15 10.5059C15 9.71021 14.6839 8.94715 14.1213 8.38454C13.5587 7.82193 12.7956 7.50586 12 7.50586C11.2044 7.50586 10.4413 7.82193 9.87868 8.38454C9.31607 8.94715 9 9.71021 9 10.5059C9 11.3015 9.31607 12.0646 9.87868 12.6272C10.4413 13.1898 11.2044 13.5059 12 13.5059Z" fill="#F74A6D"/>
</svg>
