<svg width="24" height="24" viewBox="0 0 24 24" fill="none" xmlns="http://www.w3.org/2000/svg">
<path d="M11 5.07187C7.93431 5.51038 5.5094 7.93529 5.07089 11.001H7V13.001H5.07089C5.5094 16.0667 7.93431 18.4916 11 18.9301V17.001H13V18.9301C16.0657 18.4916 18.4906 16.0667 18.9291 13.001H17V11.001H18.9291C18.4906 7.93529 16.0657 5.51038 13 5.07187V7.00098H11V5.07187ZM3.05493 11.001C3.51608 6.82936 6.82838 3.51706 11 3.05591V1.00098H13V3.05591C17.1716 3.51706 20.4839 6.82936 20.9451 11.001H23V13.001H20.9451C20.4839 17.1726 17.1716 20.4849 13 20.9461V23.001H11V20.9461C6.82838 20.4849 3.51608 17.1726 3.05493 13.001H1V11.001H3.05493ZM15 12.001C15 13.6579 13.6569 15.001 12 15.001C10.3431 15.001 9 13.6579 9 12.001C9 10.3441 10.3431 9.00098 12 9.00098C13.6569 9.00098 15 10.3441 15 12.001Z" fill="#0061EF"/>
</svg>
