<svg width="19" height="19" viewBox="0 0 19 19" fill="none" xmlns="http://www.w3.org/2000/svg">
<g clip-path="url(#clip0_2772_9874)">
<path d="M12.8047 1.53906C13.2189 1.53906 13.5547 1.87485 13.5547 2.28906V3.03831L17.3047 3.03906V7.53906L15.7897 7.53831L17.8647 13.2355C17.9876 13.5631 18.0547 13.9179 18.0547 14.2883C18.0547 15.9452 16.7115 17.2883 15.0547 17.2883C13.6573 17.2883 12.483 16.3329 12.1496 15.0397H8.96004C8.62681 16.3333 7.45236 17.2891 6.05469 17.2891C4.59604 17.2891 3.38052 16.2481 3.11058 14.8684C2.63137 14.6183 2.30469 14.1169 2.30469 13.5391V9.78906H9.05469C9.05469 10.1737 9.34419 10.4907 9.71724 10.534L9.80469 10.5391H11.3047C11.6893 10.5391 12.0063 10.2496 12.0497 9.87651L12.0547 9.78906V3.03906H9.80469V1.53906H12.8047ZM6.05469 12.7891C5.22626 12.7891 4.55469 13.4606 4.55469 14.2891C4.55469 15.1175 5.22626 15.7891 6.05469 15.7891C6.88311 15.7891 7.55469 15.1175 7.55469 14.2891C7.55469 13.4606 6.88311 12.7891 6.05469 12.7891ZM15.0547 12.7891C14.2262 12.7891 13.5547 13.4606 13.5547 14.2891C13.5547 15.1175 14.2262 15.7891 15.0547 15.7891C15.8831 15.7891 16.5547 15.1175 16.5547 14.2891C16.5547 13.4606 15.8831 12.7891 15.0547 12.7891ZM8.30469 3.03906C8.71891 3.03906 9.05469 3.37485 9.05469 3.78906V9.03906H2.30469V3.78906C2.30469 3.37485 2.64048 3.03906 3.05469 3.03906H8.30469ZM15.8047 4.53906H13.5547V6.03906H15.8047V4.53906ZM7.55469 4.53906H3.80469V5.28906H7.55469V4.53906Z" fill="white"/>
</g>
<defs>
<clipPath id="clip0_2772_9874">
<rect width="18" height="18" fill="white" transform="translate(0.804688 0.789062)"/>
</clipPath>
</defs>
</svg>
