<svg width="35" height="34" viewBox="0 0 35 34" fill="none" xmlns="http://www.w3.org/2000/svg">
<rect width="35" height="34" rx="17" fill="#DBF1EB"/>
<path d="M11.5065 22L8.31447 12.228H10.2045L11.7025 16.988L12.5705 20.236H12.6125L13.4665 16.988L14.9645 12.228H16.7985L13.6065 22H11.5065ZM24.3207 20.488H24.2647C24.1807 20.964 23.9147 21.3653 23.4667 21.692C23.0281 22.0093 22.4401 22.168 21.7027 22.168C21.1241 22.168 20.5874 22.0607 20.0927 21.846C19.6074 21.6313 19.1827 21.314 18.8187 20.894C18.4641 20.4647 18.1841 19.9373 17.9787 19.312C17.7734 18.6867 17.6707 17.9633 17.6707 17.142C17.6707 16.3207 17.7734 15.5973 17.9787 14.972C18.1934 14.3373 18.4921 13.8053 18.8747 13.376C19.2574 12.9467 19.7147 12.62 20.2467 12.396C20.7787 12.172 21.3714 12.06 22.0247 12.06C22.9021 12.06 23.6487 12.2513 24.2647 12.634C24.8807 13.0167 25.3661 13.5673 25.7207 14.286L24.2227 15.168C24.0454 14.748 23.7794 14.398 23.4247 14.118C23.0794 13.838 22.6127 13.698 22.0247 13.698C21.2967 13.698 20.7134 13.922 20.2747 14.37C19.8454 14.8087 19.6307 15.462 19.6307 16.33V17.898C19.6307 18.7567 19.8501 19.41 20.2887 19.858C20.7274 20.306 21.3154 20.53 22.0527 20.53C22.3421 20.53 22.6127 20.4973 22.8647 20.432C23.1167 20.3573 23.3361 20.25 23.5227 20.11C23.7094 19.97 23.8587 19.7973 23.9707 19.592C24.0827 19.3867 24.1387 19.144 24.1387 18.864V18.234H22.2207V16.68H25.9167V22H24.3207V20.488Z" fill="#314942"/>
</svg>
